# xmcd
#
# Track frame offsets:
#	150
#	16735
#	32805
#	56323
#	75980
#	87706
#	110523
#	129755
#	148585
#	164706
#	182841
#	212407
#
# Disc length: 3199 seconds
#
# Revision: 1
# Processed by: cddbd v1.5.2PL0 Copyright (c) Steve Scherf et al.
# Submitted via: EasyCDDAExtractor 15.3.0.1
#
DISCID=970c7d0c
DTITLE=U  P  Wilson - On My Way
DYEAR=1999
DGENRE=Blues
TTITLE0=U P  Express
TTITLE1=Cross Cut Saw
TTITLE2=Reconsider Baby
TTITLE3=Bluebird Boog-A-Loo
TTITLE4=Hold On Baby
TTITLE5=Mean Old World
TTITLE6=Como Station
TTITLE7=I'll Be Coming Home
TTITLE8=7 Comes 11
TTITLE9=On My Way
TTITLE10=Cold  Cold Feeling (Live)
TTITLE11=Slice 'N' Dice (Live)
EXTD=
EXTT0=
EXTT1=
EXTT2=
EXTT3=
EXTT4=
EXTT5=
EXTT6=
EXTT7=
EXTT8=
EXTT9=
EXTT10=
EXTT11=
PLAYORDER=
